<?xml version="1.0" encoding="UTF-8" standalone="no"?>
<!-- Created with Inkscape (http://www.inkscape.org/) -->

<svg
   width="461.57886"
   height="279.29114"
   viewBox="0 0 461.57886 279.29114"
   version="1.1"
   id="svg1"
   xml:space="preserve"
   sodipodi:docname="logo.svg"
   inkscape:version="1.3.2 (091e20e, 2023-11-25)"
   xmlns:inkscape="http://www.inkscape.org/namespaces/inkscape"
   xmlns:sodipodi="http://sodipodi.sourceforge.net/DTD/sodipodi-0.dtd"
   xmlns:xlink="http://www.w3.org/1999/xlink"
   xmlns="http://www.w3.org/2000/svg"
   xmlns:svg="http://www.w3.org/2000/svg"><sodipodi:namedview
     id="namedview1"
     pagecolor="#ffffff"
     bordercolor="#000000"
     borderopacity="0.25"
     inkscape:showpageshadow="2"
     inkscape:pageopacity="0.0"
     inkscape:pagecheckerboard="0"
     inkscape:deskcolor="#d1d1d1"
     inkscape:zoom="0.77793439"
     inkscape:cx="296.94021"
     inkscape:cy="158.75375"
     inkscape:window-width="1440"
     inkscape:window-height="634"
     inkscape:window-x="132"
     inkscape:window-y="25"
     inkscape:window-maximized="0"
     inkscape:current-layer="layer1" /><defs
     id="defs1"><linearGradient
       id="linearGradient73"
       inkscape:collect="always"><stop
         style="stop-color:#ffffff;stop-opacity:1;"
         offset="0"
         id="stop73" /><stop
         style="stop-color:#ffffff;stop-opacity:0;"
         offset="1"
         id="stop74" /></linearGradient><inkscape:path-effect
       effect="powerclip"
       id="path-effect72"
       is_visible="true"
       lpeversion="1"
       inverse="true"
       flatten="false"
       hide_clip="false"
       message="Utilise la règle de remplissage « fill-rule: evenodd » de la boîte de dialogue &lt;b&gt;Fond et contour&lt;/b&gt; en l'absence de résultat de mise à plat après une conversion en chemin." /><clipPath
       clipPathUnits="userSpaceOnUse"
       id="clipPath131"><g
         id="g132"><path
           id="path132"
           style="fill:#ffffff;fill-opacity:1;stroke:none;stroke-width:0;stroke-dasharray:none;stroke-opacity:1"
           class="powerclip"
           d="M 16.65748,110.69862 H 461.61827 V 389.30137 H 16.65748 Z m 217.14188,62.7614 V 293.37055 H 479.99894 V 173.46002 Z" /></g></clipPath><clipPath
       clipPathUnits="userSpaceOnUse"
       id="clipPath205"><g
         id="g206"><path
           id="path205"
           style="fill:#ffffff;fill-opacity:1;stroke:none;stroke-width:1.54219;stroke-dasharray:none;stroke-opacity:1"
           class="powerclip"
           d="M 85.738396,112.92944 H 231.21126 V 257.09499 H 85.738396 Z m 132.237264,98.70701 a 30.106117,29.267387 0 0 0 -30.53399,-28.70258 30.106117,29.267387 0 0 0 -29.67131,29.54526 30.106117,29.267387 0 0 0 30.24921,28.98615 30.106117,29.267387 0 0 0 29.96164,-29.26705" /></g></clipPath><clipPath
       clipPathUnits="userSpaceOnUse"
       id="clipPath206"><g
         id="g207"
         transform="matrix(-5.9963005,-13.437896,13.437896,-5.9963005,-1463.0686,3763.7854)"><path
           id="path206"
           style="fill:#ffffff;fill-opacity:1;stroke:none;stroke-width:1.54219;stroke-dasharray:none;stroke-opacity:1"
           class="powerclip"
           d="M 85.738396,112.92944 H 231.21126 V 257.09499 H 85.738396 Z m 132.237264,98.70701 a 30.106117,29.267387 0 0 0 -30.53399,-28.70258 30.106117,29.267387 0 0 0 -29.67131,29.54526 30.106117,29.267387 0 0 0 30.24921,28.98615 30.106117,29.267387 0 0 0 29.96164,-29.26705" /></g></clipPath><clipPath
       clipPathUnits="userSpaceOnUse"
       id="clipPath207"><g
         id="g208"
         transform="matrix(-13.843521,-4.9889447,4.9889447,-13.843521,1340.144,3870.8979)"><path
           id="path207"
           style="fill:#ffffff;fill-opacity:1;stroke:none;stroke-width:1.54219;stroke-dasharray:none;stroke-opacity:1"
           class="powerclip"
           d="M 85.738396,112.92944 H 231.21126 V 257.09499 H 85.738396 Z m 132.237264,98.70701 a 30.106117,29.267387 0 0 0 -30.53399,-28.70258 30.106117,29.267387 0 0 0 -29.67131,29.54526 30.106117,29.267387 0 0 0 30.24921,28.98615 30.106117,29.267387 0 0 0 29.96164,-29.26705" /></g></clipPath><clipPath
       clipPathUnits="userSpaceOnUse"
       id="clipPath208"><g
         id="g209"
         transform="matrix(-13.742153,5.2617396,-5.2617396,-13.742153,3185.7016,2241.0694)"><path
           id="path208"
           style="fill:#ffffff;fill-opacity:1;stroke:none;stroke-width:1.54219;stroke-dasharray:none;stroke-opacity:1"
           class="powerclip"
           d="M 85.738396,112.92944 H 231.21126 V 257.09499 H 85.738396 Z m 132.237264,98.70701 a 30.106117,29.267387 0 0 0 -30.53399,-28.70258 30.106117,29.267387 0 0 0 -29.67131,29.54526 30.106117,29.267387 0 0 0 30.24921,28.98615 30.106117,29.267387 0 0 0 29.96164,-29.26705" /></g></clipPath><clipPath
       clipPathUnits="userSpaceOnUse"
       id="clipPath209"><g
         id="g210"
         transform="matrix(-5.6752791,13.576595,-13.576595,-5.6752791,3462.0746,-565.61952)"><path
           id="path209"
           style="fill:#ffffff;fill-opacity:1;stroke:none;stroke-width:1.54219;stroke-dasharray:none;stroke-opacity:1"
           class="powerclip"
           d="M 85.738396,112.92944 H 231.21126 V 257.09499 H 85.738396 Z m 132.237264,98.70701 a 30.106117,29.267387 0 0 0 -30.53399,-28.70258 30.106117,29.267387 0 0 0 -29.67131,29.54526 30.106117,29.267387 0 0 0 30.24921,28.98615 30.106117,29.267387 0 0 0 29.96164,-29.26705" /></g></clipPath><clipPath
       clipPathUnits="userSpaceOnUse"
       id="clipPath210"><g
         id="g211"
         transform="matrix(7.1231779,12.876063,-12.876063,7.1231779,1386.4882,-2835.4943)"><path
           id="path210"
           style="fill:#ffffff;fill-opacity:1;stroke:none;stroke-width:1.54219;stroke-dasharray:none;stroke-opacity:1"
           class="powerclip"
           d="M 85.738396,112.92944 H 231.21126 V 257.09499 H 85.738396 Z m 132.237264,98.70701 a 30.106117,29.267387 0 0 0 -30.53399,-28.70258 30.106117,29.267387 0 0 0 -29.67131,29.54526 30.106117,29.267387 0 0 0 30.24921,28.98615 30.106117,29.267387 0 0 0 29.96164,-29.26705" /></g></clipPath><clipPath
       clipPathUnits="userSpaceOnUse"
       id="clipPath211"><g
         id="g212"
         transform="matrix(14.129018,4.1113879,-4.1113879,14.129018,-1409.557,-2745.6483)"><path
           id="path211"
           style="fill:#ffffff;fill-opacity:1;stroke:none;stroke-width:1.54219;stroke-dasharray:none;stroke-opacity:1"
           class="powerclip"
           d="M 85.738396,112.92944 H 231.21126 V 257.09499 H 85.738396 Z m 132.237264,98.70701 a 30.106117,29.267387 0 0 0 -30.53399,-28.70258 30.106117,29.267387 0 0 0 -29.67131,29.54526 30.106117,29.267387 0 0 0 30.24921,28.98615 30.106117,29.267387 0 0 0 29.96164,-29.26705" /></g></clipPath><clipPath
       clipPathUnits="userSpaceOnUse"
       id="clipPath212"><g
         id="g213"
         transform="matrix(3.2905621,-14.342414,14.342414,3.2905621,-3024.5574,2216.4195)"><path
           id="path212"
           style="fill:#ffffff;fill-opacity:1;stroke:none;stroke-width:1.54219;stroke-dasharray:none;stroke-opacity:1"
           class="powerclip"
           d="M 85.738396,112.92944 H 231.21126 V 257.09499 H 85.738396 Z m 132.237264,98.70701 a 30.106117,29.267387 0 0 0 -30.53399,-28.70258 30.106117,29.267387 0 0 0 -29.67131,29.54526 30.106117,29.267387 0 0 0 30.24921,28.98615 30.106117,29.267387 0 0 0 29.96164,-29.26705" /></g></clipPath><clipPath
       clipPathUnits="userSpaceOnUse"
       id="clipPath213"><g
         id="g214"
         transform="matrix(13.818208,-8.0865791,8.0865791,13.818208,-3634.7328,-691.75586)"><path
           id="path213"
           style="fill:#ffffff;fill-opacity:1;stroke:none;stroke-width:1.54219;stroke-dasharray:none;stroke-opacity:1"
           class="powerclip"
           d="M 85.738396,112.92944 H 231.21126 V 257.09499 H 85.738396 Z m 132.237264,98.70701 a 30.106117,29.267387 0 0 0 -30.53399,-28.70258 30.106117,29.267387 0 0 0 -29.67131,29.54526 30.106117,29.267387 0 0 0 30.24921,28.98615 30.106117,29.267387 0 0 0 29.96164,-29.26705" /></g></clipPath><clipPath
       clipPathUnits="userSpaceOnUse"
       id="clipPath214"><g
         id="g215"
         transform="matrix(-0.75551708,-11.667575,11.667575,-0.75551708,-1961.4218,2402.5813)"><path
           id="path214"
           style="fill:#ffffff;fill-opacity:1;stroke:none;stroke-width:1.54219;stroke-dasharray:none;stroke-opacity:1"
           class="powerclip"
           d="M 85.738396,112.92944 H 231.21126 V 257.09499 H 85.738396 Z m 132.237264,98.70701 a 30.106117,29.267387 0 0 0 -30.53399,-28.70258 30.106117,29.267387 0 0 0 -29.67131,29.54526 30.106117,29.267387 0 0 0 30.24921,28.98615 30.106117,29.267387 0 0 0 29.96164,-29.26705" /></g></clipPath><clipPath
       clipPathUnits="userSpaceOnUse"
       id="clipPath215"><g
         id="g216"
         transform="matrix(-8.3136293,-8.221114,8.221114,-8.3136293,-142.48824,3246.6148)"><path
           id="path215"
           style="fill:#ffffff;fill-opacity:1;stroke:none;stroke-width:1.54219;stroke-dasharray:none;stroke-opacity:1"
           class="powerclip"
           d="M 85.738396,112.92944 H 231.21126 V 257.09499 H 85.738396 Z m 132.237264,98.70701 a 30.106117,29.267387 0 0 0 -30.53399,-28.70258 30.106117,29.267387 0 0 0 -29.67131,29.54526 30.106117,29.267387 0 0 0 30.24921,28.98615 30.106117,29.267387 0 0 0 29.96164,-29.26705" /></g></clipPath><clipPath
       clipPathUnits="userSpaceOnUse"
       id="clipPath216"><g
         id="g217"
         transform="matrix(-11.550882,1.8111411,-1.8111411,-11.550882,2286.3931,2252.4904)"><path
           id="path216"
           style="fill:#ffffff;fill-opacity:1;stroke:none;stroke-width:1.54219;stroke-dasharray:none;stroke-opacity:1"
           class="powerclip"
           d="M 85.738396,112.92944 H 231.21126 V 257.09499 H 85.738396 Z m 132.237264,98.70701 a 30.106117,29.267387 0 0 0 -30.53399,-28.70258 30.106117,29.267387 0 0 0 -29.67131,29.54526 30.106117,29.267387 0 0 0 30.24921,28.98615 30.106117,29.267387 0 0 0 29.96164,-29.26705" /></g></clipPath><clipPath
       clipPathUnits="userSpaceOnUse"
       id="clipPath217"><g
         id="g218"
         transform="matrix(-8.6267415,7.8919227,-7.8919227,-8.6267415,2862.7372,758.27324)"><path
           id="path217"
           style="fill:#ffffff;fill-opacity:1;stroke:none;stroke-width:1.54219;stroke-dasharray:none;stroke-opacity:1"
           class="powerclip"
           d="M 85.738396,112.92944 H 231.21126 V 257.09499 H 85.738396 Z m 132.237264,98.70701 a 30.106117,29.267387 0 0 0 -30.53399,-28.70258 30.106117,29.267387 0 0 0 -29.67131,29.54526 30.106117,29.267387 0 0 0 30.24921,28.98615 30.106117,29.267387 0 0 0 29.96164,-29.26705" /></g></clipPath><clipPath
       clipPathUnits="userSpaceOnUse"
       id="clipPath218"><g
         id="g219"
         transform="matrix(0.98104843,11.650779,-11.650779,0.98104843,2099.2119,-1615.7699)"><path
           id="path218"
           style="fill:#ffffff;fill-opacity:1;stroke:none;stroke-width:1.54219;stroke-dasharray:none;stroke-opacity:1"
           class="powerclip"
           d="M 85.738396,112.92944 H 231.21126 V 257.09499 H 85.738396 Z m 132.237264,98.70701 a 30.106117,29.267387 0 0 0 -30.53399,-28.70258 30.106117,29.267387 0 0 0 -29.67131,29.54526 30.106117,29.267387 0 0 0 30.24921,28.98615 30.106117,29.267387 0 0 0 29.96164,-29.26705" /></g></clipPath><clipPath
       clipPathUnits="userSpaceOnUse"
       id="clipPath219"><g
         id="g220"
         transform="matrix(8.9952371,7.4691916,-7.4691916,8.9952371,35.641953,-2446.667)"><path
           id="path219"
           style="fill:#ffffff;fill-opacity:1;stroke:none;stroke-width:1.54219;stroke-dasharray:none;stroke-opacity:1"
           class="powerclip"
           d="M 85.738396,112.92944 H 231.21126 V 257.09499 H 85.738396 Z m 132.237264,98.70701 a 30.106117,29.267387 0 0 0 -30.53399,-28.70258 30.106117,29.267387 0 0 0 -29.67131,29.54526 30.106117,29.267387 0 0 0 30.24921,28.98615 30.106117,29.267387 0 0 0 29.96164,-29.26705" /></g></clipPath><clipPath
       clipPathUnits="userSpaceOnUse"
       id="clipPath220"><g
         id="g221"
         transform="matrix(7.6727513,-8.8222439,8.8222439,7.6727513,-2798.9273,419.49651)"><path
           id="path220"
           style="fill:#ffffff;fill-opacity:1;stroke:none;stroke-width:1.54219;stroke-dasharray:none;stroke-opacity:1"
           class="powerclip"
           d="M 85.738396,112.92944 H 231.21126 V 257.09499 H 85.738396 Z m 132.237264,98.70701 a 30.106117,29.267387 0 0 0 -30.53399,-28.70258 30.106117,29.267387 0 0 0 -29.67131,29.54526 30.106117,29.267387 0 0 0 30.24921,28.98615 30.106117,29.267387 0 0 0 29.96164,-29.26705" /></g></clipPath><clipPath
       clipPathUnits="userSpaceOnUse"
       id="clipPath221"><g
         id="g222"
         transform="matrix(11.559014,-1.7584982,1.7584982,11.559014,-2105.0263,-1447.0906)"><path
           id="path221"
           style="fill:#ffffff;fill-opacity:1;stroke:none;stroke-width:1.54219;stroke-dasharray:none;stroke-opacity:1"
           class="powerclip"
           d="M 85.738396,112.92944 H 231.21126 V 257.09499 H 85.738396 Z m 132.237264,98.70701 a 30.106117,29.267387 0 0 0 -30.53399,-28.70258 30.106117,29.267387 0 0 0 -29.67131,29.54526 30.106117,29.267387 0 0 0 30.24921,28.98615 30.106117,29.267387 0 0 0 29.96164,-29.26705" /></g></clipPath><clipPath
       clipPathUnits="userSpaceOnUse"
       id="clipath_lpe_path-effect302"><rect
         style="display:none;fill:#ffffff;fill-opacity:1;stroke:none;stroke-width:1.1;stroke-dasharray:none;stroke-opacity:1"
         id="rect302"
         width="229.01512"
         height="114.09101"
         x="213.01974"
         y="176.97734"
         d="M 213.01974,176.97734 H 442.03487 V 291.06835 H 213.01974 Z" /><path
         id="lpe_path-effect302"
         style="fill:#ffffff;fill-opacity:1;stroke:none;stroke-width:1.1;stroke-dasharray:none;stroke-opacity:1"
         class="powerclip"
         d="M 35.357237,129.39836 H 407.01825 v 220.7903 H 35.357237 Z M 213.01974,176.97734 V 291.06835 H 442.03487 V 176.97734 Z" /></clipPath><clipPath
       clipPathUnits="userSpaceOnUse"
       id="clipPath72"><path
         id="path72"
         style="display:none;fill:#ffffff;fill-opacity:1;stroke:none;stroke-width:0.963927;stroke-dasharray:none;stroke-opacity:1"
         d="m 169.52743,111.5043 c -0.0357,-0.004 -0.077,-0.001 -0.12321,0.009 -0.73914,0.16014 -2.76815,2.13769 -4.79844,4.45135 -2.0303,2.31367 -4.18545,5.18751 -5.29824,6.86359 -1.11279,1.67607 -2.37629,3.84158 -2.83566,5.93687 -0.45931,2.0953 -0.38792,3.74218 -0.004,6.4575 0.38444,2.71532 1.09864,5.66379 1.21653,8.23978 0.11788,2.57599 -0.2593,5.54718 -0.4408,6.97465 -0.18148,1.42748 12.4596,2.64742 12.70328,2.30637 0.24367,-0.34104 0.73069,-1.02153 1.19744,-2.51462 0.46674,-1.49308 0.91292,-3.79785 0.87812,-6.11909 -0.0348,-2.32123 -0.54996,-4.65931 -1.63824,-7.08225 -1.08828,-2.42293 -2.7497,-4.93044 -3.70685,-7.22629 -0.95717,-2.29585 -1.21079,-4.38091 -0.72715,-6.84103 0.48365,-2.46011 1.70556,-5.29513 2.63264,-7.58205 0.86914,-2.14399 1.48014,-3.80612 0.94406,-3.87346 z m -30.17375,10.20601 c -0.0517,-0.01 -0.109,0.007 -0.1718,0.0538 -0.50246,0.37771 -1.34809,2.57521 -2.0773,5.02751 -0.7292,2.45231 -1.35772,5.37285 -1.61567,7.02498 -0.2579,1.65213 -0.45916,3.72491 -0.0781,5.46658 0.38107,1.74166 1.00683,2.95985 2.24044,4.87653 1.23359,1.91666 2.79754,3.8957 3.78148,5.79977 0.98393,1.90407 1.73055,4.27884 2.08943,5.41972 0.35887,1.14088 10.32793,-2.32864 10.39344,-2.67081 0.0655,-0.34218 0.19753,-1.02726 0.0312,-2.31679 -0.16628,-1.28952 -0.63026,-3.18454 -1.46295,-4.92512 -0.83269,-1.74058 -2.03472,-3.32624 -3.69818,-4.77761 -1.66347,-1.45138 -3.78834,-2.7675 -5.30865,-4.16848 -1.52031,-1.40097 -2.43645,-2.88741 -2.92592,-4.91298 -0.48948,-2.02556 -0.55281,-4.59088 -0.64731,-6.63972 -0.0827,-1.79274 -0.1882,-3.18914 -0.55014,-3.25738 z m 52.71514,5.91431 c -0.75631,0.0546 -2.75669,1.01427 -4.83837,2.20572 -2.22043,1.27088 -4.69131,2.94818 -6.01842,3.96544 -1.32713,1.01727 -2.9035,2.37805 -3.83008,3.90122 -0.9266,1.52317 -1.31524,2.8378 -1.74584,5.07611 -0.43058,2.23829 -0.66432,4.74948 -1.26684,6.80631 -0.60254,2.05683 -1.70211,4.28928 -2.23003,5.36245 -0.52792,1.07318 9.08073,5.44505 9.36433,5.24271 0.28361,-0.20234 0.85101,-0.60783 1.62089,-1.65559 0.20774,-0.28272 0.43006,-0.61397 0.65598,-0.98052 2.18129,2.94058 7.17094,7.77312 7.46925,7.69139 0.40427,-0.11078 1.21198,-0.33206 2.51636,-1.19571 1.30437,-0.86366 3.1054,-2.37019 4.54333,-4.19277 1.43795,-1.82258 2.5135,-3.96236 3.19838,-6.52865 0.68489,-2.56631 0.97869,-5.55806 1.68509,-7.94302 0.70641,-2.38498 1.82594,-4.16193 3.75371,-5.76507 1.92777,-1.60314 4.66469,-3.03333 6.82715,-4.22228 2.16246,-1.18894 3.74962,-2.13768 3.07516,-2.47991 -0.67446,-0.34224 -3.49523,-0.0883 -6.53039,0.42518 -3.03514,0.51348 -6.5218,1.38396 -8.4428,1.98185 -1.92103,0.5979 -4.26686,1.47939 -5.94556,2.81485 -1.67871,1.33546 -2.66282,2.65775 -4.07824,5.00668 -1.41542,2.34893 -2.72272,5.08771 -4.25699,7.16035 -0.52167,0.70473 -1.1173,1.40557 -1.71633,2.06688 0.27585,-1.37936 0.35476,-2.8434 0.21,-4.42185 -0.20163,-2.1984 -0.83033,-4.61652 -0.96317,-6.67963 -0.13284,-2.06311 0.22967,-3.77076 1.2738,-5.57417 1.04413,-1.80341 2.77043,-3.70206 4.11642,-5.24964 1.34597,-1.54758 2.31283,-2.74299 1.68856,-2.81659 -0.039,-0.005 -0.0849,-0.005 -0.13535,-0.002 z m -81.86325,1.65559 c -0.0619,0.0132 -0.11704,0.059 -0.16487,0.14057 -0.38265,0.65234 -0.3017,3.4836 0.026,6.54427 0.32773,3.06068 0.98313,6.59489 1.46296,8.54868 0.47982,1.9538 1.2179,4.34836 2.44868,6.10521 1.23077,1.75685 2.49144,2.81924 4.74984,4.37499 2.2584,1.55577 4.91078,3.02808 6.88616,4.68564 1.97537,1.65756 3.90563,3.94644 4.83314,5.0466 0.92751,1.10016 10.38572,-7.37484 10.29971,-7.78509 -0.0859,-0.41026 -0.25688,-1.23129 -1.03951,-2.58578 -0.78264,-1.35449 -2.17653,-3.24357 -3.90818,-4.78976 -1.73166,-1.5462 -3.80056,-2.749 -6.3204,-3.58885 -2.51985,-0.83986 -5.49093,-1.31725 -7.82847,-2.16754 -2.33753,-0.85029 -4.04279,-2.07384 -5.52558,-4.09559 -1.48278,-2.02174 -2.74203,-4.84107 -3.7971,-7.07184 -0.92318,-1.95192 -1.68897,-3.45359 -2.12241,-3.36151 z m 96.67331,29.84923 c -0.70655,0.0143 -1.40665,0.0827 -2.05821,0.23255 -1.73748,0.39967 -2.94886,1.03846 -4.85223,2.29249 -1.90337,1.25403 -3.86469,2.83971 -5.75813,3.84395 -1.89342,1.00424 -4.26017,1.77567 -5.39715,2.14672 v 0.002 c -1.13699,0.37106 2.43902,10.30203 2.78188,10.36393 0.34285,0.0614 1.02911,0.18527 2.31678,0.005 1.28767,-0.18007 3.17794,-0.66376 4.90952,-1.51502 1.73156,-0.85126 3.30417,-2.06962 4.73768,-3.74851 1.43351,-1.67889 2.72658,-3.81856 4.11121,-5.35377 1.38464,-1.5352 2.86152,-2.46686 4.88175,-2.97798 2.0202,-0.51112 4.58506,-0.60207 6.63277,-0.71847 2.04772,-0.11639 3.57796,-0.25824 3.19491,-0.75664 -0.38304,-0.4984 -2.59012,-1.31883 -5.05008,-2.02176 -2.45996,-0.70294 -5.38581,-1.3008 -7.0406,-1.54106 -1.03425,-0.15017 -2.2325,-0.27718 -3.4101,-0.25337 z" /><path
         id="lpe_path-effect72"
         style="fill:#ffffff;fill-opacity:1;stroke:none;stroke-width:0.963927;stroke-dasharray:none;stroke-opacity:1"
         class="powerclip"
         d="M 35.357237,129.39836 H 388.82196 v 220.7903 H 35.357237 Z M 169.52743,111.5043 c -0.0357,-0.004 -0.077,-0.001 -0.12321,0.009 -0.73914,0.16014 -2.76815,2.13769 -4.79844,4.45135 -2.0303,2.31367 -4.18545,5.18751 -5.29824,6.86359 -1.11279,1.67607 -2.37629,3.84158 -2.83566,5.93687 -0.45931,2.0953 -0.38792,3.74218 -0.004,6.4575 0.38444,2.71532 1.09864,5.66379 1.21653,8.23978 0.11788,2.57599 -0.2593,5.54718 -0.4408,6.97465 -0.18148,1.42748 12.4596,2.64742 12.70328,2.30637 0.24367,-0.34104 0.73069,-1.02153 1.19744,-2.51462 0.46674,-1.49308 0.91292,-3.79785 0.87812,-6.11909 -0.0348,-2.32123 -0.54996,-4.65931 -1.63824,-7.08225 -1.08828,-2.42293 -2.7497,-4.93044 -3.70685,-7.22629 -0.95717,-2.29585 -1.21079,-4.38091 -0.72715,-6.84103 0.48365,-2.46011 1.70556,-5.29513 2.63264,-7.58205 0.86914,-2.14399 1.48014,-3.80612 0.94406,-3.87346 z m -30.17375,10.20601 c -0.0517,-0.01 -0.109,0.007 -0.1718,0.0538 -0.50246,0.37771 -1.34809,2.57521 -2.0773,5.02751 -0.7292,2.45231 -1.35772,5.37285 -1.61567,7.02498 -0.2579,1.65213 -0.45916,3.72491 -0.0781,5.46658 0.38107,1.74166 1.00683,2.95985 2.24044,4.87653 1.23359,1.91666 2.79754,3.8957 3.78148,5.79977 0.98393,1.90407 1.73055,4.27884 2.08943,5.41972 0.35887,1.14088 10.32793,-2.32864 10.39344,-2.67081 0.0655,-0.34218 0.19753,-1.02726 0.0312,-2.31679 -0.16628,-1.28952 -0.63026,-3.18454 -1.46295,-4.92512 -0.83269,-1.74058 -2.03472,-3.32624 -3.69818,-4.77761 -1.66347,-1.45138 -3.78834,-2.7675 -5.30865,-4.16848 -1.52031,-1.40097 -2.43645,-2.88741 -2.92592,-4.91298 -0.48948,-2.02556 -0.55281,-4.59088 -0.64731,-6.63972 -0.0827,-1.79274 -0.1882,-3.18914 -0.55014,-3.25738 z m 52.71514,5.91431 c -0.75631,0.0546 -2.75669,1.01427 -4.83837,2.20572 -2.22043,1.27088 -4.69131,2.94818 -6.01842,3.96544 -1.32713,1.01727 -2.9035,2.37805 -3.83008,3.90122 -0.9266,1.52317 -1.31524,2.8378 -1.74584,5.07611 -0.43058,2.23829 -0.66432,4.74948 -1.26684,6.80631 -0.60254,2.05683 -1.70211,4.28928 -2.23003,5.36245 -0.52792,1.07318 9.08073,5.44505 9.36433,5.24271 0.28361,-0.20234 0.85101,-0.60783 1.62089,-1.65559 0.20774,-0.28272 0.43006,-0.61397 0.65598,-0.98052 2.18129,2.94058 7.17094,7.77312 7.46925,7.69139 0.40427,-0.11078 1.21198,-0.33206 2.51636,-1.19571 1.30437,-0.86366 3.1054,-2.37019 4.54333,-4.19277 1.43795,-1.82258 2.5135,-3.96236 3.19838,-6.52865 0.68489,-2.56631 0.97869,-5.55806 1.68509,-7.94302 0.70641,-2.38498 1.82594,-4.16193 3.75371,-5.76507 1.92777,-1.60314 4.66469,-3.03333 6.82715,-4.22228 2.16246,-1.18894 3.74962,-2.13768 3.07516,-2.47991 -0.67446,-0.34224 -3.49523,-0.0883 -6.53039,0.42518 -3.03514,0.51348 -6.5218,1.38396 -8.4428,1.98185 -1.92103,0.5979 -4.26686,1.47939 -5.94556,2.81485 -1.67871,1.33546 -2.66282,2.65775 -4.07824,5.00668 -1.41542,2.34893 -2.72272,5.08771 -4.25699,7.16035 -0.52167,0.70473 -1.1173,1.40557 -1.71633,2.06688 0.27585,-1.37936 0.35476,-2.8434 0.21,-4.42185 -0.20163,-2.1984 -0.83033,-4.61652 -0.96317,-6.67963 -0.13284,-2.06311 0.22967,-3.77076 1.2738,-5.57417 1.04413,-1.80341 2.77043,-3.70206 4.11642,-5.24964 1.34597,-1.54758 2.31283,-2.74299 1.68856,-2.81659 -0.039,-0.005 -0.0849,-0.005 -0.13535,-0.002 z m -81.86325,1.65559 c -0.0619,0.0132 -0.11704,0.059 -0.16487,0.14057 -0.38265,0.65234 -0.3017,3.4836 0.026,6.54427 0.32773,3.06068 0.98313,6.59489 1.46296,8.54868 0.47982,1.9538 1.2179,4.34836 2.44868,6.10521 1.23077,1.75685 2.49144,2.81924 4.74984,4.37499 2.2584,1.55577 4.91078,3.02808 6.88616,4.68564 1.97537,1.65756 3.90563,3.94644 4.83314,5.0466 0.92751,1.10016 10.38572,-7.37484 10.29971,-7.78509 -0.0859,-0.41026 -0.25688,-1.23129 -1.03951,-2.58578 -0.78264,-1.35449 -2.17653,-3.24357 -3.90818,-4.78976 -1.73166,-1.5462 -3.80056,-2.749 -6.3204,-3.58885 -2.51985,-0.83986 -5.49093,-1.31725 -7.82847,-2.16754 -2.33753,-0.85029 -4.04279,-2.07384 -5.52558,-4.09559 -1.48278,-2.02174 -2.74203,-4.84107 -3.7971,-7.07184 -0.92318,-1.95192 -1.68897,-3.45359 -2.12241,-3.36151 z m 96.67331,29.84923 c -0.70655,0.0143 -1.40665,0.0827 -2.05821,0.23255 -1.73748,0.39967 -2.94886,1.03846 -4.85223,2.29249 -1.90337,1.25403 -3.86469,2.83971 -5.75813,3.84395 -1.89342,1.00424 -4.26017,1.77567 -5.39715,2.14672 v 0.002 c -1.13699,0.37106 2.43902,10.30203 2.78188,10.36393 0.34285,0.0614 1.02911,0.18527 2.31678,0.005 1.28767,-0.18007 3.17794,-0.66376 4.90952,-1.51502 1.73156,-0.85126 3.30417,-2.06962 4.73768,-3.74851 1.43351,-1.67889 2.72658,-3.81856 4.11121,-5.35377 1.38464,-1.5352 2.86152,-2.46686 4.88175,-2.97798 2.0202,-0.51112 4.58506,-0.60207 6.63277,-0.71847 2.04772,-0.11639 3.57796,-0.25824 3.19491,-0.75664 -0.38304,-0.4984 -2.59012,-1.31883 -5.05008,-2.02176 -2.45996,-0.70294 -5.38581,-1.3008 -7.0406,-1.54106 -1.03425,-0.15017 -2.2325,-0.27718 -3.4101,-0.25337 z" /></clipPath><linearGradient
       inkscape:collect="always"
       xlink:href="#linearGradient73"
       id="linearGradient74"
       x1="128.39265"
       y1="167.06685"
       x2="174.03903"
       y2="195.62115"
       gradientUnits="userSpaceOnUse" /></defs><g
     id="layer1"
     transform="translate(-23.425529,-111.52312)"><g
       id="g255"
       transform="matrix(1.1254479,0,0,1.1254479,-21.994695,-20.651329)"><g
         id="g241"
         transform="translate(2.1861127,1.5754679)"
         style="fill:#ffffff;fill-opacity:1;stroke:#fefefe;stroke-opacity:1"><path
           d="m 185.56412,220.6619 v -8.40883 h 21.71998 v 19.88161 q -3.16608,3.06394 -9.19184,5.41297 -5.99172,2.31498 -12.15366,2.31498 -7.83008,0 -13.65158,-3.26821 -5.8215,-3.30225 -8.74927,-9.3961 -2.92777,-6.12789 -2.92777,-13.31114 0,-7.79605 3.26821,-13.85585 3.26821,-6.05981 9.56632,-9.29397 4.80018,-2.4852 11.94939,-2.4852 9.29397,0 14.50268,3.91504 5.24275,3.881 6.74068,10.75786 l -10.00889,1.87241 q -1.05536,-3.67674 -3.98313,-5.78746 -2.89373,-2.14476 -7.25134,-2.14476 -6.60451,0 -10.51955,4.18739 -3.881,4.1874 -3.881,12.42601 0,8.88544 3.94909,13.34519 3.94909,4.4257 10.34933,4.4257 3.16608,0 6.33215,-1.22558 3.20013,-1.25962 5.48106,-3.0299 v -6.33216 z m 28.97131,-6.29811 q 0,-7.62582 2.28094,-12.80049 1.70219,-3.81291 4.62997,-6.84281 2.96181,-3.0299 6.46833,-4.49379 4.664,-1.97454 10.75785,-1.97454 11.03021,0 17.63472,6.84281 6.63855,6.84281 6.63855,19.03051 0,12.08557 -6.57047,18.92838 -6.57046,6.80877 -17.56662,6.80877 -11.13234,0 -17.7028,-6.77472 -6.57047,-6.80877 -6.57047,-18.72412 z m 10.38338,-0.34044 q 0,8.47692 3.91504,12.86858 3.91504,4.35761 9.9408,4.35761 6.02577,0 9.87272,-4.32357 3.881,-4.35761 3.881,-13.03879 0,-8.57905 -3.77887,-12.80049 -3.74482,-4.22144 -9.97485,-4.22144 -6.23002,0 -10.04293,4.28953 -3.81291,4.25548 -3.81291,12.86857 z m 41.56754,24.98819 v -9.08971 l 26.21376,-32.3757 h -23.25195 v -8.44288 h 36.52905 v 7.83009 L 278.64,230.60271 h 28.39257 v 8.40883 z m 44.86979,-24.64775 q 0,-7.62582 2.28093,-12.80049 1.7022,-3.81291 4.62997,-6.84281 2.96181,-3.0299 6.46833,-4.49379 4.66401,-1.97454 10.75785,-1.97454 11.03021,0 17.63472,6.84281 6.63855,6.84281 6.63855,19.03051 0,12.08557 -6.57046,18.92838 -6.57047,6.80877 -17.56663,6.80877 -11.13234,0 -17.7028,-6.77472 -6.57046,-6.80877 -6.57046,-18.72412 z m 10.38337,-0.34044 q 0,8.47692 3.91504,12.86858 3.91504,4.35761 9.94081,4.35761 6.02576,0 9.87271,-4.32357 3.881,-4.35761 3.881,-13.03879 0,-8.57905 -3.77887,-12.80049 -3.74482,-4.22144 -9.97484,-4.22144 -6.23003,0 -10.04294,4.28953 -3.81291,4.25548 -3.81291,12.86857 z"
           id="text296"
           style="font-weight:bold;font-size:69.7218px;font-family:Arial;fill:#ffffff;fill-opacity:1;stroke:#fefefe;stroke-width:0.173318;stroke-dasharray:none;stroke-opacity:1"
           transform="scale(1.0162225,0.98403648)"
           aria-label="GOZO" /><path
           d="m 183.7732,222.21157 v -8.40883 h 21.71997 v 19.88161 q -3.16608,3.06394 -9.19184,5.41297 -5.99172,2.31498 -12.15365,2.31498 -7.83009,0 -13.65159,-3.26821 -5.82149,-3.30225 -8.74926,-9.3961 -2.92778,-6.1279 -2.92778,-13.31115 0,-7.79604 3.26821,-13.85584 3.26821,-6.05981 9.56633,-9.29397 4.80018,-2.48521 11.94939,-2.48521 9.29397,0 14.50268,3.91505 5.24275,3.881 6.74068,10.75785 l -10.00889,1.87242 q -1.05536,-3.67674 -3.98313,-5.78746 -2.89373,-2.14476 -7.25134,-2.14476 -6.60451,0 -10.51955,4.18739 -3.881,4.1874 -3.881,12.42601 0,8.88544 3.94908,13.34519 3.94909,4.4257 10.34933,4.4257 3.16608,0 6.33216,-1.22558 3.20012,-1.25963 5.48106,-3.02991 v -6.33215 z m 28.97131,-6.29811 q 0,-7.62583 2.28094,-12.80049 1.70219,-3.81291 4.62996,-6.84281 2.96182,-3.02991 6.46833,-4.49379 4.66401,-1.97455 10.75786,-1.97455 11.03021,0 17.63471,6.84282 6.63855,6.84281 6.63855,19.03051 0,12.08557 -6.57046,18.92838 -6.57046,6.80877 -17.56663,6.80877 -11.13233,0 -17.7028,-6.77473 -6.57046,-6.80877 -6.57046,-18.72411 z m 10.38337,-0.34044 q 0,8.47692 3.91505,12.86857 3.91504,4.35762 9.9408,4.35762 6.02576,0 9.87272,-4.32357 3.88099,-4.35762 3.88099,-13.0388 0,-8.57905 -3.77886,-12.80048 -3.74483,-4.22144 -9.97485,-4.22144 -6.23002,0 -10.04294,4.28952 -3.81291,4.25548 -3.81291,12.86858 z m 41.56754,24.98818 v -9.0897 l 26.21376,-32.3757 h -23.25194 v -8.44288 h 36.52905 v 7.83009 l -27.33721,33.66936 h 28.39257 v 8.40883 z m 44.86979,-24.64774 q 0,-7.62583 2.28094,-12.80049 1.70219,-3.81291 4.62996,-6.84281 2.96182,-3.02991 6.46833,-4.49379 4.66401,-1.97455 10.75786,-1.97455 11.03021,0 17.63471,6.84282 6.63855,6.84281 6.63855,19.03051 0,12.08557 -6.57046,18.92838 -6.57046,6.80877 -17.56662,6.80877 -11.13234,0 -17.70281,-6.77473 -6.57046,-6.80877 -6.57046,-18.72411 z m 10.38338,-0.34044 q 0,8.47692 3.91504,12.86857 3.91504,4.35762 9.9408,4.35762 6.02576,0 9.87272,-4.32357 3.881,-4.35762 3.881,-13.0388 0,-8.57905 -3.77887,-12.80048 -3.74482,-4.22144 -9.97485,-4.22144 -6.23002,0 -10.04293,4.28952 -3.81291,4.25548 -3.81291,12.86858 z"
           id="text1-4"
           style="font-weight:bold;font-size:69.7218px;font-family:Arial;fill:#ffffff;fill-opacity:1;stroke:#fefefe;stroke-width:0.496555;stroke-dasharray:none;stroke-opacity:1"
           transform="scale(1.0162225,0.98403647)"
           aria-label="GOZO" /><text
           x="142.69775"
           y="294.05716"
           fill="#000000"
           style="font-weight:normal;font-size:40.8351px;font-family:Arial;letter-spacing:6.88px;fill:#ffffff;fill-opacity:1;stroke:#fefefe;stroke-width:2.5522;stroke-opacity:1"
           id="text2-6"
           transform="scale(1.0401042,0.96144214)">AUTHENTIC</text></g><path
         style="display:none;fill:none;fill-opacity:1;stroke:#fefefe;stroke-width:2.74985;stroke-dasharray:none;stroke-opacity:1"
         d="m 164.79173,135.77352 c -1.65732,-0.008 -2.79989,0.21837 -3.12912,0.74062 -0.5415,0.85894 -2.2201,1.08889 -3.73086,0.50917 -1.66188,-0.63773 -5.28908,0.26032 -9.1929,2.26814 -6.07789,3.12596 -6.67503,3.17447 -10.24829,0.83319 -4.7436,-3.10814 -4.90703,-3.09908 -5.80459,0.33327 -0.79991,3.05888 -7.34616,5.0257 -10.41494,3.12911 -1.56333,-0.9662 -7.65203,-0.87156 -14.08097,-0.19444 v 0.009 c -0.0559,0.0223 -0.20951,0.009 -0.27776,0.028 -5.82132,0.62852 -11.881962,1.71551 -15.034549,3.03653 -3.336924,1.39825 -8.457917,5.01949 -11.377726,8.04495 l -5.304666,5.49908 -16.376902,-0.18514 c -19.453745,-0.22581 -19.024116,-0.76969 -17.358213,22.07039 0.497505,6.8208 1.091373,7.46939 7.008109,7.63761 6.860696,0.19506 9.766474,4.31762 10.118653,14.36797 0.249795,7.13307 -0.268281,9.08546 -3.092059,11.72026 -4.577273,4.27105 -6.227486,9.73646 -3.277247,10.86856 3.114999,1.19534 4.405166,5.16353 2.444059,7.52652 -1.264239,1.52329 -0.78138,1.87062 2.175542,1.54604 2.97792,-0.3269 4.118921,0.50155 5.27689,3.82343 1.728233,4.9576 -0.97951,8.30363 -5.72126,7.06364 -2.573792,-0.67305 -2.870039,0.0569 -2.666221,6.64703 0.126082,4.07241 -0.197656,7.40709 -0.722084,7.40617 -0.524428,-9.1e-4 -1.796204,2.04285 -2.832878,4.54554 -1.036627,2.50269 -2.611664,4.54553 -3.490119,4.54553 -3.406601,0 5.507062,7.32899 10.053858,8.26714 6.759546,1.39473 19.692733,0.93311 21.413097,-0.76839 2.110842,-2.08769 7.234821,-1.65436 10.609333,0.898 1.619356,1.22481 5.038044,2.22185 7.600555,2.22185 3.376928,0 5.071178,0.94257 6.156388,3.4161 0.82347,1.87701 2.52582,3.41609 3.77717,3.41609 2.35888,0 9.10032,6.31646 9.10032,8.52636 0,0.69155 -2.22313,0.85648 -4.93438,0.37033 l -4.92509,-0.88874 4.92509,4.79549 c 2.71125,2.63489 4.93438,5.4385 4.93438,6.23044 0,0.79195 1.71269,1.43495 3.81419,1.43495 3.31801,0 3.6964,0.50258 2.8699,3.79566 -0.82698,3.29488 -0.44888,3.79566 2.87914,3.79566 2.10653,0 4.12072,0.84579 4.47148,1.88857 0.51016,1.51587 1.09924,1.52355 2.93469,0.009 3.09409,-2.55275 15.73193,-4.20902 16.9601,-2.22185 0.52794,0.85424 2.32244,1.19523 3.99009,0.75914 1.97779,-0.51721 3.02726,-0.05 3.02726,1.35162 0,2.31655 1.7873,2.68634 16.28434,3.31427 5.20005,0.22524 9.91895,0.87417 10.48898,1.4442 0.57003,0.57003 3.95999,1.03686 7.53576,1.03686 8.62955,0 14.09831,2.67398 15.23822,7.46172 1.43588,6.03091 3.52681,8.09368 6.07306,5.98048 2.68177,-2.22569 9.12858,0.85883 10.44268,4.99916 1.12583,3.54712 3.14789,3.58713 4.06413,0.0833 0.43986,-1.68231 4.80332,-4.30779 11.54438,-6.95254 5.9602,-2.3384 11.22396,-4.88342 11.70175,-5.65646 0.47774,-0.77304 -0.13983,-3.4403 -1.37942,-5.92494 -1.23945,-2.48464 -1.68069,-4.87244 -0.98131,-5.30467 0.69933,-0.43223 2.04263,1.5631 2.99024,4.43445 1.33505,4.04527 2.81828,5.47512 6.57298,6.34153 8.58357,1.98071 10.15572,1.7842 10.15572,-1.29608 0,-2.54691 0.74588,-2.79134 5.92494,-1.91634 4.84489,0.81854 7.05844,0.28183 12.18313,-2.95321 6.38367,-4.02983 10.93459,-3.98785 7.56354,0.0741 -1.07365,1.29358 -1.17167,2.14779 -0.24079,2.14779 0.84712,0 1.87669,-0.87613 2.28669,-1.94412 0.41001,-1.06799 3.38509,-3.2911 6.61,-4.93436 3.22492,-1.64326 6.69542,-4.00703 7.71166,-5.25838 2.17867,-2.68262 2.56536,-6.63808 0.5277,-5.37873 -3.01304,1.86212 -3.33356,-2.67472 -0.39815,-5.61018 2.41211,-2.41211 4.88873,-3.0564 11.17409,-2.90692 4.44394,0.1057 12.70857,0.17055 18.35802,0.14813 5.64945,-0.0223 11.07365,0.46257 12.06279,1.07389 1.39567,0.86256 3.30194,1.31312 5.30466,1.54604 0.27729,-0.11632 0.78987,-0.0735 1.39795,0.028 4.76332,0.23055 9.63727,-0.94647 9.63727,-3.31427 0,-2.43263 6.3384,-4.59221 9.69281,-3.305 1.16172,0.4458 3.41931,-0.40867 5.01771,-1.89783 1.59841,-1.48915 5.34216,-3.50634 8.32264,-4.48999 2.98048,-0.98365 6.55602,-3.04975 7.94316,-4.58256 4.30719,-4.75938 -0.66392,-14.00602 -15.39559,-28.62485 -6.96393,-6.9106 -13.86795,-14.71393 -15.34004,-17.34896 -3.07328,-5.50118 -10.48424,-8.47131 -11.90542,-4.76772 -1.28211,3.34105 -12.59973,-8.84104 -12.59973,-13.56255 0,-6.58625 -3.17965,-13.16195 -6.80444,-14.07172 -2.05585,-0.51598 -5.9783,0.41528 -9.6465,2.28666 -8.30084,4.23476 -10.05552,4.00202 -13.46999,-1.77749 -1.82587,-3.09068 -4.8056,-5.49238 -7.99866,-6.44336 -3.81557,-1.13639 -5.51607,-2.77662 -6.75813,-6.52669 -3.16595,-9.55868 -8.39644,-10.24742 -13.71992,-1.81451 -2.19701,3.48031 -5.01444,6.0638 -6.61,6.0638 -3.49856,0 -11.44513,-3.90538 -13.8588,-6.81368 -1.00587,-1.21196 -4.10471,-2.63476 -6.88777,-3.15688 -4.13939,-0.77655 3.25099,4.10362 0.62871,-1.47504 -4.68805,-9.97338 -16.9547,-19.20683 -25.17088,-20.48425 -5.55309,-0.86336 -7.87078,-0.58734 -9.85947,1.17573 -4.12646,3.6583 -7.25805,1.33823 -7.25805,-5.36947 0,-7.07845 -3.37399,-10.6524 -11.26662,-11.9332 -3.40916,-0.55322 -5.30851,-1.59801 -4.88807,-2.69399 0.95856,-2.49799 -4.25833,-5.58265 -6.18417,-3.65679 -0.98083,0.98081 -3.78124,0.47703 -8.15603,-1.47198 -6.58189,-2.93233 -16.2375,-5.1135 -21.20942,-5.13803 z"
         transform="translate(-1.7329476,-1.7331754)"
         id="path301"
         clip-path="url(#clipath_lpe_path-effect302)" /><path
         d="m 406.39948,319.85387 c 0.23178,0.028 0.78659,0.39906 1.67566,1.12018 1.41151,1.14494 2.56436,3.25665 2.56436,4.69366 0,3.88599 5.32524,8.07772 8.84115,6.9618 2.19426,-0.69641 3.92832,0.29758 6.55444,3.76789 1.9641,2.59556 5.12204,6.43033 7.0266,8.5171 l 3.47163,3.79566 -3.26796,5.2769 c -2.18938,3.54244 -4.03782,4.98797 -5.60091,4.38815 -1.28201,-0.49194 -5.70107,0.23269 -9.8224,1.60159 -4.72493,1.56937 -9.63068,2.13962 -13.28485,1.55529 -3.97824,-0.63614 -5.99831,-0.328 -6.4341,0.97206 -0.3664,1.09301 -3.45481,1.64186 -8.27638,1.77748 0.52059,0.34995 -0.18391,0.0601 -2.01666,0.0601 -1.86962,0 -2.53331,0.34507 -1.94413,-0.0152 -5.55243,-0.0964 -6.84771,-0.55402 -6.09311,-2.96094 0.52305,-1.66846 2.2191,-3.92758 3.76788,-5.01767 3.59027,-2.52699 3.54178,-4.18993 -0.22231,-8.23011 -1.74197,-1.86977 -3.02726,-2.43515 -3.02726,-1.33311 -1.88873,0.036 -1.96305,-0.29554 -4.09896,-2.89475 -1.88669,-2.4057 -1.69311,-0.30246 -2.41292,-2.78481 -2.09577,-4.26824 -1.76378,-1.71102 -0.57951,-7.24423 0.69791,-4.30069 0.43608,-5.2117 -1.32382,-4.53628 -2.42704,0.93134 -2.89184,-1.69233 -0.86096,-4.89733 1.03572,-1.63443 1.99163,-1.68609 4.6751,-0.24994 3.10183,1.66007 3.29834,1.52059 2.48108,-1.74045 -0.48835,-1.94861 -0.49561,-2.69066 -0.019,-1.64787 0.47893,1.04279 1.79061,1.89783 2.91621,1.89783 1.12564,0 2.49241,1.40547 3.0365,3.11985 1.20224,3.78791 3.99502,3.17432 6.0268,-1.32385 1.93907,-4.2929 8.50281,-3.70564 10.60933,0.95354 0.82352,1.8214 2.31694,3.31426 3.31427,3.31426 2.31736,0 4.08697,-5.44931 2.58289,-7.95237 -0.39768,-0.66152 -0.49105,-0.97241 -0.25927,-0.94429 z"
         style="fill:none;fill-opacity:1;stroke:#fefefe;stroke-width:2.21899;stroke-dasharray:none;stroke-opacity:1"
         id="path26"
         clip-path="url(#clipPath131)"
         transform="translate(2.2783845e-4)" /><path
         style="fill:none;fill-opacity:1;stroke:#fefefe;stroke-width:2.74985;stroke-dasharray:none;stroke-opacity:1"
         d="m 249.11817,173.56109 c -0.92426,-0.86534 -1.86418,-1.69602 -2.82349,-2.47861 -3.83723,-3.13034 -7.98472,-5.49106 -12.68131,-6.22127 -5.55309,-0.86338 -7.87078,-0.58734 -9.85947,1.17573 -4.12646,3.6583 -7.25805,1.33823 -7.25805,-5.36947 0,-7.07845 -3.37399,-10.6524 -11.26662,-11.9332 -3.40916,-0.55322 -5.30851,-1.59801 -4.88807,-2.69399 0.95856,-2.49799 -4.25833,-5.58265 -6.18417,-3.65679 -0.98083,0.98081 -3.78124,0.47703 -8.15603,-1.47198 -6.58189,-2.93233 -16.2375,-5.1135 -21.20942,-5.13803 l 1.9e-4,4e-5 c -1.65732,-0.008 -2.79989,0.21837 -3.12912,0.74062 -0.5415,0.85894 -2.2201,1.08889 -3.73086,0.50917 -1.66188,-0.63773 -5.28908,0.26032 -9.1929,2.26814 -6.07789,3.12596 -6.67503,3.17447 -10.24829,0.83319 -4.7436,-3.10814 -4.90703,-3.09908 -5.80459,0.33327 -0.79991,3.05888 -7.34616,5.0257 -10.41494,3.12911 -1.56333,-0.9662 -7.65203,-0.87156 -14.08097,-0.19444 v 0.009 c -0.0559,0.0223 -0.20951,0.009 -0.27776,0.028 -5.82132,0.62852 -11.881962,1.71551 -15.034549,3.03653 -3.336924,1.39825 -8.457917,5.01949 -11.377726,8.04495 l -5.304666,5.49908 -16.376902,-0.18514 c -19.453745,-0.22581 -19.024116,-0.76969 -17.358213,22.07039 0.497505,6.8208 1.091373,7.46939 7.008109,7.63761 6.860696,0.19506 9.766474,4.31762 10.118653,14.36797 0.249795,7.13307 -0.268281,9.08546 -3.092059,11.72026 -4.577273,4.27105 -6.227486,9.73646 -3.277247,10.86856 3.114999,1.19534 4.405166,5.16353 2.444059,7.52652 -1.264239,1.52329 -0.78138,1.87062 2.175542,1.54604 2.97792,-0.3269 4.118921,0.50155 5.27689,3.82343 1.728233,4.9576 -0.97951,8.30363 -5.72126,7.06364 -2.573792,-0.67305 -2.870039,0.0569 -2.666221,6.64703 0.126082,4.07241 -0.197656,7.40709 -0.722084,7.40617 -0.524428,-9.1e-4 -1.796204,2.04285 -2.832878,4.54554 -1.036627,2.50269 -2.611664,4.54553 -3.490119,4.54553 -3.406601,0 5.507062,7.32899 10.053858,8.26714 6.759546,1.39473 19.692733,0.93311 21.413097,-0.76839 2.110842,-2.08769 7.234821,-1.65436 10.609333,0.898 1.619356,1.22481 5.038044,2.22185 7.600555,2.22185 3.376928,0 5.071178,0.94257 6.156388,3.4161 0.82347,1.87701 2.52582,3.41609 3.77717,3.41609 2.35888,0 9.10032,6.31646 9.10032,8.52636 0,0.69155 -2.22313,0.85648 -4.93438,0.37033 l -4.92509,-0.88874 4.92509,4.79549 c 2.71125,2.63489 4.93438,5.4385 4.93438,6.23044 0,0.79195 1.71269,1.43495 3.81419,1.43495 3.31801,0 3.6964,0.50258 2.8699,3.79566 -0.82698,3.29488 -0.44888,3.79566 2.87914,3.79566 2.10653,0 4.12072,0.84579 4.47148,1.88857 0.51016,1.51587 1.09924,1.52355 2.93469,0.009 3.09409,-2.55275 15.73193,-4.20902 16.9601,-2.22185 0.52794,0.85424 2.32244,1.19523 3.99009,0.75914 1.97779,-0.51721 3.02726,-0.05 3.02726,1.35162 0,2.31655 1.7873,2.68634 16.28434,3.31427 5.20005,0.22524 9.91895,0.87417 10.48898,1.4442 0.57003,0.57003 3.95999,1.03686 7.53576,1.03686 8.62955,0 14.09831,2.67398 15.23822,7.46172 1.43588,6.03091 3.52681,8.09368 6.07306,5.98048 2.68177,-2.22569 9.12858,0.85883 10.44268,4.99916 1.12583,3.54712 3.14789,3.58713 4.06413,0.0833 0.43986,-1.68231 4.80332,-4.30779 11.54438,-6.95254 5.9602,-2.3384 11.22396,-4.88342 11.70175,-5.65646 0.47774,-0.77304 -0.13983,-3.4403 -1.37942,-5.92494 -1.23945,-2.48464 -1.68069,-4.87244 -0.98131,-5.30467 0.69933,-0.43223 2.04263,1.5631 2.99024,4.43445 1.33505,4.04527 2.81828,5.47512 6.57298,6.34153 8.58357,1.98071 10.15572,1.7842 10.15572,-1.29608 0,-2.54691 0.74588,-2.79134 5.92494,-1.91634 4.84489,0.81854 7.05844,0.28183 12.18313,-2.95321 6.38367,-4.02983 10.93459,-3.98785 7.56354,0.0741 -1.07365,1.29358 -1.17167,2.14779 -0.24079,2.14779 0.84712,0 1.87669,-0.87613 2.28669,-1.94412 0.41001,-1.06799 3.38509,-3.2911 6.61,-4.93436 3.22492,-1.64326 6.69542,-4.00703 7.71166,-5.25838 2.17867,-2.68262 2.56536,-6.63808 0.5277,-5.37873 -3.01304,1.86212 -3.33356,-2.67472 -0.39815,-5.61018 2.41211,-2.41211 4.88873,-3.0564 11.17409,-2.90692 4.44394,0.1057 12.70857,0.17055 18.35802,0.14813 5.64945,-0.0223 11.07365,0.46257 12.06279,1.07389 1.39567,0.86256 3.30194,1.31312 5.30466,1.54604 0.27729,-0.11632 0.78987,-0.0735 1.39795,0.028 4.76332,0.23055 9.63727,-0.94647 9.63727,-3.31427 0,-2.43263 6.3384,-4.59221 9.69281,-3.305 1.16172,0.4458 3.41931,-0.40867 5.01771,-1.89783"
         transform="translate(2.2783845e-4)"
         id="path17"
         clip-path="url(#clipPath72)"
         sodipodi:nodetypes="cssssscscccssccsscccscccssccssscscscsssssssscccssssccsssssssssssscsssssscssssssscsccssc"
         inkscape:original-d="m 249.11817,173.56109 c -0.92426,-0.86534 -1.86418,-1.69602 -2.82349,-2.47861 -3.83723,-3.13034 -7.98472,-5.49106 -12.68131,-6.22127 -5.55309,-0.86338 -7.87078,-0.58734 -9.85947,1.17573 -4.12646,3.6583 -7.25805,1.33823 -7.25805,-5.36947 0,-7.07845 -3.37399,-10.6524 -11.26662,-11.9332 -3.40916,-0.55322 -5.30851,-1.59801 -4.88807,-2.69399 0.95856,-2.49799 -4.25833,-5.58265 -6.18417,-3.65679 -0.98083,0.98081 -3.78124,0.47703 -8.15603,-1.47198 -6.58189,-2.93233 -16.2375,-5.1135 -21.20942,-5.13803 l 1.9e-4,4e-5 c -1.65732,-0.008 -2.79989,0.21837 -3.12912,0.74062 -0.5415,0.85894 -2.2201,1.08889 -3.73086,0.50917 -1.66188,-0.63773 -5.28908,0.26032 -9.1929,2.26814 -6.07789,3.12596 -6.67503,3.17447 -10.24829,0.83319 -4.7436,-3.10814 -4.90703,-3.09908 -5.80459,0.33327 -0.79991,3.05888 -7.34616,5.0257 -10.41494,3.12911 -1.56333,-0.9662 -7.65203,-0.87156 -14.08097,-0.19444 v 0.009 c -0.0559,0.0223 -0.20951,0.009 -0.27776,0.028 -5.82132,0.62852 -11.881962,1.71551 -15.034549,3.03653 -3.336924,1.39825 -8.457917,5.01949 -11.377726,8.04495 l -5.304666,5.49908 -16.376902,-0.18514 c -19.453745,-0.22581 -19.024116,-0.76969 -17.358213,22.07039 0.497505,6.8208 1.091373,7.46939 7.008109,7.63761 6.860696,0.19506 9.766474,4.31762 10.118653,14.36797 0.249795,7.13307 -0.268281,9.08546 -3.092059,11.72026 -4.577273,4.27105 -6.227486,9.73646 -3.277247,10.86856 3.114999,1.19534 4.405166,5.16353 2.444059,7.52652 -1.264239,1.52329 -0.78138,1.87062 2.175542,1.54604 2.97792,-0.3269 4.118921,0.50155 5.27689,3.82343 1.728233,4.9576 -0.97951,8.30363 -5.72126,7.06364 -2.573792,-0.67305 -2.870039,0.0569 -2.666221,6.64703 0.126082,4.07241 -0.197656,7.40709 -0.722084,7.40617 -0.524428,-9.1e-4 -1.796204,2.04285 -2.832878,4.54554 -1.036627,2.50269 -2.611664,4.54553 -3.490119,4.54553 -3.406601,0 5.507062,7.32899 10.053858,8.26714 6.759546,1.39473 19.692733,0.93311 21.413097,-0.76839 2.110842,-2.08769 7.234821,-1.65436 10.609333,0.898 1.619356,1.22481 5.038044,2.22185 7.600555,2.22185 3.376928,0 5.071178,0.94257 6.156388,3.4161 0.82347,1.87701 2.52582,3.41609 3.77717,3.41609 2.35888,0 9.10032,6.31646 9.10032,8.52636 0,0.69155 -2.22313,0.85648 -4.93438,0.37033 l -4.92509,-0.88874 4.92509,4.79549 c 2.71125,2.63489 4.93438,5.4385 4.93438,6.23044 0,0.79195 1.71269,1.43495 3.81419,1.43495 3.31801,0 3.6964,0.50258 2.8699,3.79566 -0.82698,3.29488 -0.44888,3.79566 2.87914,3.79566 2.10653,0 4.12072,0.84579 4.47148,1.88857 0.51016,1.51587 1.09924,1.52355 2.93469,0.009 3.09409,-2.55275 15.73193,-4.20902 16.9601,-2.22185 0.52794,0.85424 2.32244,1.19523 3.99009,0.75914 1.97779,-0.51721 3.02726,-0.05 3.02726,1.35162 0,2.31655 1.7873,2.68634 16.28434,3.31427 5.20005,0.22524 9.91895,0.87417 10.48898,1.4442 0.57003,0.57003 3.95999,1.03686 7.53576,1.03686 8.62955,0 14.09831,2.67398 15.23822,7.46172 1.43588,6.03091 3.52681,8.09368 6.07306,5.98048 2.68177,-2.22569 9.12858,0.85883 10.44268,4.99916 1.12583,3.54712 3.14789,3.58713 4.06413,0.0833 0.43986,-1.68231 4.80332,-4.30779 11.54438,-6.95254 5.9602,-2.3384 11.22396,-4.88342 11.70175,-5.65646 0.47774,-0.77304 -0.13983,-3.4403 -1.37942,-5.92494 -1.23945,-2.48464 -1.68069,-4.87244 -0.98131,-5.30467 0.69933,-0.43223 2.04263,1.5631 2.99024,4.43445 1.33505,4.04527 2.81828,5.47512 6.57298,6.34153 8.58357,1.98071 10.15572,1.7842 10.15572,-1.29608 0,-2.54691 0.74588,-2.79134 5.92494,-1.91634 4.84489,0.81854 7.05844,0.28183 12.18313,-2.95321 6.38367,-4.02983 10.93459,-3.98785 7.56354,0.0741 -1.07365,1.29358 -1.17167,2.14779 -0.24079,2.14779 0.84712,0 1.87669,-0.87613 2.28669,-1.94412 0.41001,-1.06799 3.38509,-3.2911 6.61,-4.93436 3.22492,-1.64326 6.69542,-4.00703 7.71166,-5.25838 2.17867,-2.68262 2.56536,-6.63808 0.5277,-5.37873 -3.01304,1.86212 -3.33356,-2.67472 -0.39815,-5.61018 2.41211,-2.41211 4.88873,-3.0564 11.17409,-2.90692 4.44394,0.1057 12.70857,0.17055 18.35802,0.14813 5.64945,-0.0223 11.07365,0.46257 12.06279,1.07389 1.39567,0.86256 3.30194,1.31312 5.30466,1.54604 0.27729,-0.11632 0.78987,-0.0735 1.39795,0.028 4.76332,0.23055 9.63727,-0.94647 9.63727,-3.31427 0,-2.43263 6.3384,-4.59221 9.69281,-3.305 1.16172,0.4458 3.41931,-0.40867 5.01771,-1.89783"
         inkscape:path-effect="#path-effect72" /><path
         style="fill:#ffffff;fill-opacity:1;stroke:#fefefe;stroke-width:1.1;stroke-dasharray:none;stroke-opacity:1"
         d="m 372.39286,293.15734 c 1.17366,-0.44406 3.94517,-1.29683 7.14309,-1.72322 3.19792,-0.42638 6.82212,-0.42638 10.49973,-0.23983 3.67761,0.18654 7.4084,0.55962 9.48703,0.77282 2.07863,0.21319 2.50501,0.26648 0.3655,0.3107 -2.13951,0.0442 -6.84465,0.0794 -9.88269,0.2126 -3.03805,0.13325 -4.4087,0.3646 -5.20206,0.56925 -0.79335,0.20466 -1.00939,0.38261 -1.36802,0.59257 -0.35862,0.20996 -0.85982,0.45191 -1.86224,0.59882 -1.00243,0.14691 -2.50602,0.19875 -3.75904,0.13826 -1.25303,-0.0605 -2.25542,-0.23332 -3.17143,-0.37158 -0.916,-0.13827 -1.74557,-0.24196 -2.37245,-0.31148 -0.62689,-0.0695 -1.05107,-0.10486 0.12258,-0.54891 z"
         id="path223"
         transform="matrix(0.99927329,0.03888421,-0.043998,1.2514184,12.486728,-88.257229)" /><path
         style="fill:#ffffff;fill-opacity:1;stroke:#fefefe;stroke-width:1.1;stroke-dasharray:none;stroke-opacity:1"
         d="m 247.47219,173.54981 c 0.1419,0.16318 0.4257,0.48955 1.27001,0.95072 0.84431,0.46118 2.24909,1.05715 3.59715,1.42608 1.34805,0.36894 2.6393,0.51084 3.54037,0.55341 0.90106,0.0426 1.41189,-0.0142 1.89435,-0.0355 0.48246,-0.0213 0.93653,-0.007 0.56758,-0.1206 -0.36895,-0.11351 -1.56088,-0.35473 -2.57547,-0.63854 -1.01458,-0.2838 -1.85177,-0.61016 -2.49742,-0.95072 -0.64564,-0.34056 -1.09971,-0.6953 -1.3764,-0.92233 -0.27669,-0.22702 -0.37605,-0.32638 -0.53214,-0.4399 -0.15609,-0.11352 -0.36893,-0.24123 -0.76626,-0.30508 -0.39732,-0.0639 -0.9791,-0.0639 -1.46156,-0.0284 -0.48247,0.0355 -0.86558,0.10642 -1.14939,0.17028 -0.2838,0.0639 -0.46825,0.12061 -0.56049,0.14899 -0.0922,0.0284 -0.0922,0.0283 0.0497,0.19154 z"
         id="path224" /><path
         style="fill:#ffffff;fill-opacity:1;stroke:#fefefe;stroke-width:1.1;stroke-dasharray:none;stroke-opacity:1"
         d="m 248.38984,174.89151 c 0.76143,0.87401 3.07957,2.75505 6.21844,3.42514 3.13886,0.6701 7.89352,0.26224 12.29881,-0.18857 4.4053,-0.4508 8.46097,-0.94454 10.77099,-1.20904 2.31002,-0.26451 2.87429,-0.29977 1.19905,-0.22924 -1.67524,0.0705 -5.58985,0.24687 -8.76394,0.26451 -3.17409,0.0176 -5.6075,-0.12344 -7.41145,-0.24637 -1.80396,-0.12293 -2.97837,-0.22771 -3.68166,-0.30648 -0.70329,-0.0788 -0.9354,-0.13152 -1.36801,-0.23704 -0.43261,-0.10551 -1.06567,-0.26378 -1.72513,-0.42205 -0.65947,-0.15827 -1.34529,-0.31654 -2.11554,-0.50647 -0.77026,-0.18992 -3.0366,-1.90832 -3.76993,-2.08242 -0.73332,-0.1741 0.0664,1.19612 -0.41826,1.12075 -0.48468,-0.0754 -0.84207,-0.0995 -1.02077,-0.11157 -0.17869,-0.0121 -0.97402,-0.14515 -0.2126,0.72885 z"
         id="path225"
         transform="matrix(1.0067832,0,0,1.2036309,-1.8982293,-35.950064)"
         sodipodi:nodetypes="sssssssssssssss" /><g
         id="g240"
         style="display:inline;opacity:1;fill:#ffffff;fill-opacity:1;stroke:#fefefe;stroke-opacity:1"
         transform="translate(0.16546871,-0.28988652)"><path
           style="fill:#ffffff;fill-opacity:1;stroke:#fefefe;stroke-width:12.8612;stroke-dasharray:none;stroke-opacity:1"
           d="m 1.3531894,-31.128594 c -1.35341713008,-12.180754 -4.1702853,-37.532567 -10.340986,-58.96277 -6.1707004,-21.430206 -18.0807724,-45.250346 -26.7630714,-67.517886 -8.682299,-22.26755 -12.597846,-35.97196 -12.969204,-54.08999 -0.371359,-18.11803 5.846861,-37.80906 11.788634,-53.22387 5.941774,-15.41482 18.202143,-42.16471 30.5407585,-64.05471 12.3386153,-21.89 25.3382895,-40.95619 31.2030805,-43.21174 5.86479,-2.25554 4.06027,13.08288 0.902252,33.38439 -3.158019,20.30151 -7.669319,45.56479 -6.766977,66.7685 0.902341,21.20371 7.218161,38.34665 19.850244,56.3924 12.632082,18.04575 31.579543,36.99321 45.564943,55.94124 13.9854,18.94803 23.007997,37.89549 27.970537,57.29467 4.96254,19.399173 5.8648,39.248894 4.96249,52.331989 -0.9023,13.083096 -3.60908,19.398915 -4.9625,22.556889 -1.35342,3.157974 -109.6267835,8.571642 -110.9802006,-3.609112 z"
           id="path94"
           transform="matrix(0.0845556,0.01286363,-0.01286363,0.0845556,159.37692,149.43789)"
           clip-path="url(#clipPath221)" /><path
           style="fill:#ffffff;fill-opacity:1;stroke:#fefefe;stroke-width:12.8612;stroke-dasharray:none;stroke-opacity:1"
           d="m 1.3531894,-31.128594 c -1.35341713008,-12.180754 -4.1702853,-37.532567 -10.340986,-58.96277 -6.1707004,-21.430206 -18.0807724,-45.250346 -26.7630714,-67.517886 -8.682299,-22.26755 -12.597846,-35.97196 -12.969204,-54.08999 -0.371359,-18.11803 5.846861,-37.80906 11.788634,-53.22387 5.941774,-15.41482 18.202143,-42.16471 30.5407585,-64.05471 12.3386153,-21.89 25.3382895,-40.95619 31.2030805,-43.21174 5.86479,-2.25554 4.06027,13.08288 0.902252,33.38439 -3.158019,20.30151 -7.669319,45.56479 -6.766977,66.7685 0.902341,21.20371 7.218161,38.34665 19.850244,56.3924 12.632082,18.04575 31.579543,36.99321 45.564943,55.94124 13.9854,18.94803 23.007997,37.89549 27.970537,57.29467 4.96254,19.399173 5.8648,39.248894 4.96249,52.331989 -0.9023,13.083096 -3.60908,19.398915 -4.9625,22.556889 -1.35342,3.157974 -109.6267835,8.571642 -110.9802006,-3.609112 z"
           id="path95"
           transform="matrix(0.05612712,0.0645358,-0.0645358,0.05612712,184.16827,157.08588)"
           clip-path="url(#clipPath220)" /><path
           style="fill:#ffffff;fill-opacity:1;stroke:#fefefe;stroke-width:12.8612;stroke-dasharray:none;stroke-opacity:1"
           d="m 1.3531894,-31.128594 c -1.35341713008,-12.180754 -4.1702853,-37.532567 -10.340986,-58.96277 -6.1707004,-21.430206 -18.0807724,-45.250346 -26.7630714,-67.517886 -8.682299,-22.26755 -12.597846,-35.97196 -12.969204,-54.08999 -0.371359,-18.11803 5.846861,-37.80906 11.788634,-53.22387 5.941774,-15.41482 18.202143,-42.16471 30.5407585,-64.05471 12.3386153,-21.89 25.3382895,-40.95619 31.2030805,-43.21174 5.86479,-2.25554 4.06027,13.08288 0.902252,33.38439 -3.158019,20.30151 -7.669319,45.56479 -6.766977,66.7685 0.902341,21.20371 7.218161,38.34665 19.850244,56.3924 12.632082,18.04575 31.579543,36.99321 45.564943,55.94124 13.9854,18.94803 23.007997,37.89549 27.970537,57.29467 4.96254,19.399173 5.8648,39.248894 4.96249,52.331989 -0.9023,13.083096 -3.60908,19.398915 -4.9625,22.556889 -1.35342,3.157974 -109.6267835,8.571642 -110.9802006,-3.609112 z"
           id="path96"
           transform="matrix(0.06580126,-0.05463805,0.05463805,0.06580126,131.33583,162.94118)"
           clip-path="url(#clipPath219)" /><path
           style="fill:#ffffff;fill-opacity:1;stroke:#fefefe;stroke-width:12.8612;stroke-dasharray:none;stroke-opacity:1"
           d="m 1.3531894,-31.128594 c -1.35341713008,-12.180754 -4.1702853,-37.532567 -10.340986,-58.96277 -6.1707004,-21.430206 -18.0807724,-45.250346 -26.7630714,-67.517886 -8.682299,-22.26755 -12.597846,-35.97196 -12.969204,-54.08999 -0.371359,-18.11803 5.846861,-37.80906 11.788634,-53.22387 5.941774,-15.41482 18.202143,-42.16471 30.5407585,-64.05471 12.3386153,-21.89 25.3382895,-40.95619 31.2030805,-43.21174 5.86479,-2.25554 4.06027,13.08288 0.902252,33.38439 -3.158019,20.30151 -7.669319,45.56479 -6.766977,66.7685 0.902341,21.20371 7.218161,38.34665 19.850244,56.3924 12.632082,18.04575 31.579543,36.99321 45.564943,55.94124 13.9854,18.94803 23.007997,37.89549 27.970537,57.29467 4.96254,19.399173 5.8648,39.248894 4.96249,52.331989 -0.9023,13.083096 -3.60908,19.398915 -4.9625,22.556889 -1.35342,3.157974 -109.6267835,8.571642 -110.9802006,-3.609112 z"
           id="path98"
           transform="matrix(0.00717649,-0.08522688,0.08522688,0.00717649,122.64205,190.50484)"
           clip-path="url(#clipPath218)" /><path
           style="fill:#ffffff;fill-opacity:1;stroke:#fefefe;stroke-width:12.8612;stroke-dasharray:none;stroke-opacity:1"
           d="m 1.3531894,-31.128594 c -1.35341713008,-12.180754 -4.1702853,-37.532567 -10.340986,-58.96277 -6.1707004,-21.430206 -18.0807724,-45.250346 -26.7630714,-67.517886 -8.682299,-22.26755 -12.597846,-35.97196 -12.969204,-54.08999 -0.371359,-18.11803 5.846861,-37.80906 11.788634,-53.22387 5.941774,-15.41482 18.202143,-42.16471 30.5407585,-64.05471 12.3386153,-21.89 25.3382895,-40.95619 31.2030805,-43.21174 5.86479,-2.25554 4.06027,13.08288 0.902252,33.38439 -3.158019,20.30151 -7.669319,45.56479 -6.766977,66.7685 0.902341,21.20371 7.218161,38.34665 19.850244,56.3924 12.632082,18.04575 31.579543,36.99321 45.564943,55.94124 13.9854,18.94803 23.007997,37.89549 27.970537,57.29467 4.96254,19.399173 5.8648,39.248894 4.96249,52.331989 -0.9023,13.083096 -3.60908,19.398915 -4.9625,22.556889 -1.35342,3.157974 -109.6267835,8.571642 -110.9802006,-3.609112 z"
           id="path100"
           transform="matrix(-0.06310567,-0.05773038,0.05773038,-0.06310567,136.87955,213.11825)"
           clip-path="url(#clipPath217)" /><path
           style="fill:#ffffff;fill-opacity:1;stroke:#fefefe;stroke-width:12.8612;stroke-dasharray:none;stroke-opacity:1"
           d="m 1.3531894,-31.128594 c -1.35341713008,-12.180754 -4.1702853,-37.532567 -10.340986,-58.96277 -6.1707004,-21.430206 -18.0807724,-45.250346 -26.7630714,-67.517886 -8.682299,-22.26755 -12.597846,-35.97196 -12.969204,-54.08999 -0.371359,-18.11803 5.846861,-37.80906 11.788634,-53.22387 5.941774,-15.41482 18.202143,-42.16471 30.5407585,-64.05471 12.3386153,-21.89 25.3382895,-40.95619 31.2030805,-43.21174 5.86479,-2.25554 4.06027,13.08288 0.902252,33.38439 -3.158019,20.30151 -7.669319,45.56479 -6.766977,66.7685 0.902341,21.20371 7.218161,38.34665 19.850244,56.3924 12.632082,18.04575 31.579543,36.99321 45.564943,55.94124 13.9854,18.94803 23.007997,37.89549 27.970537,57.29467 4.96254,19.399173 5.8648,39.248894 4.96249,52.331989 -0.9023,13.083096 -3.60908,19.398915 -4.9625,22.556889 -1.35342,3.157974 -109.6267835,8.571642 -110.9802006,-3.609112 z"
           id="path102"
           transform="matrix(-0.08449612,-0.01324872,0.01324872,-0.08449612,163.34873,220.61848)"
           clip-path="url(#clipPath216)" /><path
           style="fill:#ffffff;fill-opacity:1;stroke:#fefefe;stroke-width:7.01521;stroke-dasharray:none;stroke-opacity:1"
           d="m 1.3531894,-31.128594 c -1.35341713008,-12.180754 -4.1702853,-37.532567 -10.340986,-58.96277 -6.1707004,-21.430206 -18.0807724,-45.250346 -26.7630714,-67.517886 -8.682299,-22.26755 -12.597846,-35.97196 -12.969204,-54.08999 -0.371359,-18.11803 5.846861,-37.80906 11.788634,-53.22387 5.941774,-15.41482 18.202143,-42.16471 30.5407585,-64.05471 12.3386153,-21.89 25.3382895,-40.95619 31.2030805,-43.21174 5.86479,-2.25554 4.06027,13.08288 0.902252,33.38439 -3.158019,20.30151 -7.669319,45.56479 -6.766977,66.7685 0.902341,21.20371 7.218161,38.34665 19.850244,56.3924 12.632082,18.04575 31.579543,36.99321 45.564943,55.94124 13.9854,18.94803 23.007997,37.89549 27.970537,57.29467 4.96254,19.399173 5.8648,39.248894 4.96249,52.331989 -0.9023,13.083096 -3.60908,19.398915 -4.9625,22.556889 -1.35342,3.157974 -109.6267835,8.571642 -110.9802006,-3.609112 z"
           id="path104"
           transform="matrix(-0.0608152,0.06013844,-0.06013844,-0.0608152,186.5809,206.01255)"
           clip-path="url(#clipPath215)" /><path
           style="fill:#ffffff;fill-opacity:1;stroke:#fefefe;stroke-width:12.8612;stroke-dasharray:none;stroke-opacity:1"
           d="m 1.3531894,-31.128594 c -1.35341713008,-12.180754 -4.1702853,-37.532567 -10.340986,-58.96277 -6.1707004,-21.430206 -18.0807724,-45.250346 -26.7630714,-67.517886 -8.682299,-22.26755 -12.597846,-35.97196 -12.969204,-54.08999 -0.371359,-18.11803 5.846861,-37.80906 11.788634,-53.22387 5.941774,-15.41482 18.202143,-42.16471 30.5407585,-64.05471 12.3386153,-21.89 25.3382895,-40.95619 31.2030805,-43.21174 5.86479,-2.25554 4.06027,13.08288 0.902252,33.38439 -3.158019,20.30151 -7.669319,45.56479 -6.766977,66.7685 0.902341,21.20371 7.218161,38.34665 19.850244,56.3924 12.632082,18.04575 31.579543,36.99321 45.564943,55.94124 13.9854,18.94803 23.007997,37.89549 27.970537,57.29467 4.96254,19.399173 5.8648,39.248894 4.96249,52.331989 -0.9023,13.083096 -3.60908,19.398915 -4.9625,22.556889 -1.35342,3.157974 -109.6267835,8.571642 -110.9802006,-3.609112 z"
           id="path106"
           transform="matrix(-0.0055267,0.08534974,-0.08534974,-0.0055267,194.2195,180.68519)"
           clip-path="url(#clipPath214)" /><path
           style="fill:none;fill-opacity:1;stroke:#fefefe;stroke-width:9.60629;stroke-dasharray:none;stroke-opacity:1"
           d="m 1.3531894,-31.128594 c -1.35341713008,-12.180754 -4.1702853,-37.532567 -10.340986,-58.96277 -6.1707004,-21.430206 -18.0807724,-45.250346 -26.7630714,-67.517886 -8.682299,-22.26755 -12.597846,-35.97196 -12.969204,-54.08999 -0.371359,-18.11803 5.846861,-37.80906 11.788634,-53.22387 5.941774,-15.41482 18.202143,-42.16471 30.5407585,-64.05471 12.3386153,-21.89 25.3382895,-40.95619 31.2030805,-43.21174 5.86479,-2.25554 4.06027,13.08288 0.902252,33.38439 -3.158019,20.30151 -7.669319,45.56479 -6.766977,66.7685 0.902341,21.20371 7.218161,38.34665 19.850244,56.3924 12.632082,18.04575 31.579543,36.99321 45.564943,55.94124 13.9854,18.94803 23.007997,37.89549 27.970537,57.29467 4.96254,19.399173 5.8648,39.248894 4.96249,52.331989 -0.9023,13.083096 -3.60908,19.398915 -4.9625,22.556889 -1.35342,3.157974 -109.6267835,8.571642 -110.9802006,-3.609112 z"
           id="path108"
           transform="matrix(0.0539067,0.03154684,-0.03154684,0.0539067,174.11374,151.95461)"
           clip-path="url(#clipPath213)" /><path
           style="fill:none;fill-opacity:1;stroke:#fefefe;stroke-width:8.82903;stroke-dasharray:none;stroke-opacity:1"
           d="m 1.3531894,-31.128594 c -1.35341713008,-12.180754 -4.1702853,-37.532567 -10.340986,-58.96277 -6.1707004,-21.430206 -18.0807724,-45.250346 -26.7630714,-67.517886 -8.682299,-22.26755 -12.597846,-35.97196 -12.969204,-54.08999 -0.371359,-18.11803 5.846861,-37.80906 11.788634,-53.22387 5.941774,-15.41482 18.202143,-42.16471 30.5407585,-64.05471 12.3386153,-21.89 25.3382895,-40.95619 31.2030805,-43.21174 5.86479,-2.25554 4.06027,13.08288 0.902252,33.38439 -3.158019,20.30151 -7.669319,45.56479 -6.766977,66.7685 0.902341,21.20371 7.218161,38.34665 19.850244,56.3924 12.632082,18.04575 31.579543,36.99321 45.564943,55.94124 13.9854,18.94803 23.007997,37.89549 27.970537,57.29467 4.96254,19.399173 5.8648,39.248894 4.96249,52.331989 -0.9023,13.083096 -3.60908,19.398915 -4.9625,22.556889 -1.35342,3.157974 -109.6267835,8.571642 -110.9802006,-3.609112 z"
           id="path109"
           transform="matrix(0.01519661,0.06623673,-0.06623673,0.01519661,192.7714,166.65473)"
           clip-path="url(#clipPath212)" /><path
           style="fill:none;fill-opacity:1;stroke:#fefefe;stroke-width:8.82903;stroke-dasharray:none;stroke-opacity:1"
           d="m 1.3531894,-31.128594 c -1.35341713008,-12.180754 -4.1702853,-37.532567 -10.340986,-58.96277 -6.1707004,-21.430206 -18.0807724,-45.250346 -26.7630714,-67.517886 -8.682299,-22.26755 -12.597846,-35.97196 -12.969204,-54.08999 -0.371359,-18.11803 5.846861,-37.80906 11.788634,-53.22387 5.941774,-15.41482 18.202143,-42.16471 30.5407585,-64.05471 12.3386153,-21.89 25.3382895,-40.95619 31.2030805,-43.21174 5.86479,-2.25554 4.06027,13.08288 0.902252,33.38439 -3.158019,20.30151 -7.669319,45.56479 -6.766977,66.7685 0.902341,21.20371 7.218161,38.34665 19.850244,56.3924 12.632082,18.04575 31.579543,36.99321 45.564943,55.94124 13.9854,18.94803 23.007997,37.89549 27.970537,57.29467 4.96254,19.399173 5.8648,39.248894 4.96249,52.331989 -0.9023,13.083096 -3.60908,19.398915 -4.9625,22.556889 -1.35342,3.157974 -109.6267835,8.571642 -110.9802006,-3.609112 z"
           id="path110"
           transform="matrix(0.06525121,-0.01898738,0.01898738,0.06525121,144.10797,152.39308)"
           clip-path="url(#clipPath211)" /><path
           style="fill:none;fill-opacity:1;stroke:#fefefe;stroke-width:8.82903;stroke-dasharray:none;stroke-opacity:1"
           d="m 1.3531894,-31.128594 c -1.35341713008,-12.180754 -4.1702853,-37.532567 -10.340986,-58.96277 -6.1707004,-21.430206 -18.0807724,-45.250346 -26.7630714,-67.517886 -8.682299,-22.26755 -12.597846,-35.97196 -12.969204,-54.08999 -0.371359,-18.11803 5.846861,-37.80906 11.788634,-53.22387 5.941774,-15.41482 18.202143,-42.16471 30.5407585,-64.05471 12.3386153,-21.89 25.3382895,-40.95619 31.2030805,-43.21174 5.86479,-2.25554 4.06027,13.08288 0.902252,33.38439 -3.158019,20.30151 -7.669319,45.56479 -6.766977,66.7685 0.902341,21.20371 7.218161,38.34665 19.850244,56.3924 12.632082,18.04575 31.579543,36.99321 45.564943,55.94124 13.9854,18.94803 23.007997,37.89549 27.970537,57.29467 4.96254,19.399173 5.8648,39.248894 4.96249,52.331989 -0.9023,13.083096 -3.60908,19.398915 -4.9625,22.556889 -1.35342,3.157974 -109.6267835,8.571642 -110.9802006,-3.609112 z"
           id="path111"
           transform="matrix(0.03289655,-0.05946476,0.05946476,0.03289655,123.00131,175.72517)"
           clip-path="url(#clipPath210)" /><path
           style="fill:none;fill-opacity:1;stroke:#fefefe;stroke-width:8.82903;stroke-dasharray:none;stroke-opacity:1"
           d="m 1.3531894,-31.128594 c -1.35341713008,-12.180754 -4.1702853,-37.532567 -10.340986,-58.96277 -6.1707004,-21.430206 -18.0807724,-45.250346 -26.7630714,-67.517886 -8.682299,-22.26755 -12.597846,-35.97196 -12.969204,-54.08999 -0.371359,-18.11803 5.846861,-37.80906 11.788634,-53.22387 5.941774,-15.41482 18.202143,-42.16471 30.5407585,-64.05471 12.3386153,-21.89 25.3382895,-40.95619 31.2030805,-43.21174 5.86479,-2.25554 4.06027,13.08288 0.902252,33.38439 -3.158019,20.30151 -7.669319,45.56479 -6.766977,66.7685 0.902341,21.20371 7.218161,38.34665 19.850244,56.3924 12.632082,18.04575 31.579543,36.99321 45.564943,55.94124 13.9854,18.94803 23.007997,37.89549 27.970537,57.29467 4.96254,19.399173 5.8648,39.248894 4.96249,52.331989 -0.9023,13.083096 -3.60908,19.398915 -4.9625,22.556889 -1.35342,3.157974 -109.6267835,8.571642 -110.9802006,-3.609112 z"
           id="path112"
           transform="matrix(-0.0262098,-0.06269997,0.06269997,-0.0262098,126.20461,202.2472)"
           clip-path="url(#clipPath209)" /><path
           style="fill:none;fill-opacity:1;stroke:#fefefe;stroke-width:8.82903;stroke-dasharray:none;stroke-opacity:1"
           d="m 1.3531894,-31.128594 c -1.35341713008,-12.180754 -4.1702853,-37.532567 -10.340986,-58.96277 -6.1707004,-21.430206 -18.0807724,-45.250346 -26.7630714,-67.517886 -8.682299,-22.26755 -12.597846,-35.97196 -12.969204,-54.08999 -0.371359,-18.11803 5.846861,-37.80906 11.788634,-53.22387 5.941774,-15.41482 18.202143,-42.16471 30.5407585,-64.05471 12.3386153,-21.89 25.3382895,-40.95619 31.2030805,-43.21174 5.86479,-2.25554 4.06027,13.08288 0.902252,33.38439 -3.158019,20.30151 -7.669319,45.56479 -6.766977,66.7685 0.902341,21.20371 7.218161,38.34665 19.850244,56.3924 12.632082,18.04575 31.579543,36.99321 45.564943,55.94124 13.9854,18.94803 23.007997,37.89549 27.970537,57.29467 4.96254,19.399173 5.8648,39.248894 4.96249,52.331989 -0.9023,13.083096 -3.60908,19.398915 -4.9625,22.556889 -1.35342,3.157974 -109.6267835,8.571642 -110.9802006,-3.609112 z"
           id="path113"
           transform="matrix(-0.06346457,-0.02429998,0.02429998,-0.06346457,147.72124,219.64099)"
           clip-path="url(#clipPath208)" /><path
           style="fill:#ffffff;fill-opacity:1;stroke:#fefefe;stroke-width:8.82903;stroke-dasharray:none;stroke-opacity:1"
           d="m 1.3531894,-31.128594 c -1.35341713008,-12.180754 -4.1702853,-37.532567 -10.340986,-58.96277 -6.1707004,-21.430206 -18.0807724,-45.250346 -26.7630714,-67.517886 -8.682299,-22.26755 -12.597846,-35.97196 -12.969204,-54.08999 -0.371359,-18.11803 5.846861,-37.80906 11.788634,-53.22387 5.941774,-15.41482 18.202143,-42.16471 30.5407585,-64.05471 12.3386153,-21.89 25.3382895,-40.95619 31.2030805,-43.21174 5.86479,-2.25554 4.06027,13.08288 0.902252,33.38439 -3.158019,20.30151 -7.669319,45.56479 -6.766977,66.7685 0.902341,21.20371 7.218161,38.34665 19.850244,56.3924 12.632082,18.04575 31.579543,36.99321 45.564943,55.94124 13.9854,18.94803 23.007997,37.89549 27.970537,57.29467 4.96254,19.399173 5.8648,39.248894 4.96249,52.331989 -0.9023,13.083096 -3.60908,19.398915 -4.9625,22.556889 -1.35342,3.157974 -109.6267835,8.571642 -110.9802006,-3.609112 z"
           id="path114"
           transform="matrix(-0.06393272,0.02304015,-0.02304015,-0.06393272,174.86512,216.59991)"
           clip-path="url(#clipPath207)" /><path
           style="fill:#ffffff;fill-opacity:1;stroke:#fefefe;stroke-width:8.82903;stroke-dasharray:none;stroke-opacity:1"
           d="m 1.3531894,-31.128594 c -1.35341713008,-12.180754 -4.1702853,-37.532567 -10.340986,-58.96277 -6.1707004,-21.430206 -18.0807724,-45.250346 -26.7630714,-67.517886 -8.682299,-22.26755 -12.597846,-35.97196 -12.969204,-54.08999 -0.371359,-18.11803 5.846861,-37.80906 11.788634,-53.22387 5.941774,-15.41482 18.202143,-42.16471 30.5407585,-64.05471 12.3386153,-21.89 25.3382895,-40.95619 31.2030805,-43.21174 5.86479,-2.25554 4.06027,13.08288 0.902252,33.38439 -3.158019,20.30151 -7.669319,45.56479 -6.766977,66.7685 0.902341,21.20371 7.218161,38.34665 19.850244,56.3924 12.632082,18.04575 31.579543,36.99321 45.564943,55.94124 13.9854,18.94803 23.007997,37.89549 27.970537,57.29467 4.96254,19.399173 5.8648,39.248894 4.96249,52.331989 -0.9023,13.083096 -3.60908,19.398915 -4.9625,22.556889 -1.35342,3.157974 -109.6267835,8.571642 -110.9802006,-3.609112 z"
           id="path115"
           transform="matrix(-0.02769236,0.06205944,-0.06205944,-0.02769236,193.06259,195.02532)"
           clip-path="url(#clipPath206)" /><path
           style="fill:url(#linearGradient74);fill-opacity:1;stroke:#fefefe;stroke-width:1.2;stroke-dasharray:none;stroke-opacity:1"
           id="path130"
           d="m 190.57161,184.19946 a 31.360548,29.7132 0 0 1 -31.21005,29.71286 31.360548,29.7132 0 0 1 -31.5096,-29.42768 31.360548,29.7132 0 0 1 30.90762,-29.9953 31.360548,29.7132 0 0 1 31.80625,29.13979"
           clip-path="url(#clipPath205)" /></g></g><use
       x="0"
       y="0"
       xlink:href="#g255"
       id="use74"
       inkscape:export-filename="logo_white.png"
       inkscape:export-xdpi="96"
       inkscape:export-ydpi="96" /></g></svg>
